<svg version="1.1" id="Layer_1" xmlns="http://www.w3.org/2000/svg" xmlns:xlink="http://www.w3.org/1999/xlink" x="0px" y="0px"
	 width="100%" viewBox="0 0 361 302" enable-background="new 0 0 361 302" xml:space="preserve">
<path fill="#FFFFFF" opacity="1.000000" stroke="none" 
	d="
M1.000002,295.000000 
	C1.000000,197.124023 1.000000,99.248055 1.000000,1.000000 
	C18.019087,1.000000 35.040886,1.000000 52.418617,1.334998 
	C50.073093,4.273024 49.741940,6.769352 51.609585,10.393388 
	C57.688053,22.188231 63.700146,34.053101 68.955795,46.228569 
	C79.313828,70.224419 84.912163,95.504677 85.757278,121.552597 
	C86.149727,133.648804 85.056244,146.049225 82.695015,157.925766 
	C77.691780,183.091110 68.183189,206.466858 51.369213,226.449326 
	C49.999439,228.077225 50.370155,232.169342 51.428619,234.409271 
	C51.940067,235.491608 56.374588,235.861862 58.267632,234.955795 
	C67.411674,230.579224 76.080818,225.180466 85.318512,221.036087 
	C102.070473,213.520538 119.792603,209.603561 138.169662,209.041321 
	C146.204605,208.795486 154.266449,208.715271 162.291824,209.085663 
	C169.341522,209.411026 176.556442,209.673569 183.346924,211.370407 
	C197.736603,214.966141 211.916962,219.412369 226.140991,223.651352 
	C231.138855,225.140778 234.031036,223.385300 233.949509,218.207764 
	C233.903214,215.267776 233.415558,212.326706 233.013840,209.401627 
	C229.608047,184.603622 221.066879,161.578094 208.954758,139.784225 
	C192.622574,110.397026 171.316666,85.137901 146.357498,62.673115 
	C128.097870,46.238319 108.821175,31.293264 87.926079,18.423149 
	C78.342636,12.520329 68.645546,6.801998 59.000000,1.000001 
	C159.925827,1.000000 260.851654,1.000000 362.000000,1.000000 
	C362.000000,98.354118 362.000000,195.708405 361.642883,293.406555 
	C357.306671,292.402161 352.926758,291.705475 349.438599,289.559326 
	C343.597900,285.965759 338.259888,281.532532 332.827728,277.301941 
	C319.102539,266.612671 308.526215,265.690674 294.296021,277.101440 
	C288.424103,281.809937 282.196259,286.086517 276.011841,290.389282 
	C271.859467,293.278259 266.071350,292.584503 261.897430,288.801849 
	C263.085541,288.143829 264.177307,287.549042 265.259918,286.938049 
	C278.246002,279.609161 291.582123,272.825409 304.111511,264.784668 
	C315.396332,257.542664 325.771393,248.888062 336.602325,240.930817 
	C339.851654,238.543625 340.879211,235.343781 339.750244,231.771576 
	C338.641815,228.264313 335.285980,228.838196 332.525848,229.033722 
	C324.478180,229.603867 316.448486,230.432724 308.399170,230.973465 
	C292.426392,232.046494 276.445435,232.997864 260.467438,233.993118 
	C244.323410,234.998749 228.177979,235.981857 212.034882,237.002182 
	C196.555832,237.980545 181.080200,239.013168 165.600861,239.986725 
	C149.291428,241.012497 132.978760,241.986832 116.668671,243.002304 
	C106.293396,243.648254 95.923195,244.379181 85.545464,244.981522 
	C67.571022,246.024780 49.594528,247.036438 31.614462,247.976471 
	C26.303761,248.254135 23.799143,251.886765 26.237465,256.491760 
	C29.285633,262.248535 32.620647,267.853363 35.963669,273.756622 
	C30.377466,277.898163 25.082006,282.022736 19.570993,285.835754 
	C16.244289,288.137451 12.662943,290.114502 9.044398,291.936218 
	C6.494937,293.219696 3.690563,293.996826 1.000002,295.000000 
M299.101959,222.579346 
	C304.859039,223.029037 307.275482,219.743362 305.391663,213.833023 
	C299.103455,194.104141 290.797516,175.272156 280.686859,157.185242 
	C270.079987,138.210632 257.934448,120.249596 243.403198,104.183014 
	C228.769363,88.003014 213.149307,72.592285 194.397186,61.039810 
	C182.823074,53.909458 170.823486,47.444298 158.791046,41.105446 
	C156.452530,39.873493 152.990662,40.161297 150.242310,40.715981 
	C149.478516,40.870140 148.716415,44.699718 149.228546,46.475388 
	C149.738663,48.244125 151.716324,49.709389 153.282883,51.032631 
	C159.567490,56.341061 166.503006,61.005524 172.155884,66.906288 
	C181.267151,76.417053 190.010941,86.361977 198.096970,96.755951 
	C215.844559,119.569038 229.064178,144.996155 238.975281,172.076614 
	C243.628952,184.791992 247.342072,197.855576 251.331451,210.807556 
	C252.450638,214.441101 254.163559,216.657852 258.333710,216.021576 
	C261.253601,215.576050 264.202942,215.064178 267.141693,215.048157 
	C278.109528,214.988312 288.751099,216.562790 299.101959,222.579346 
z"/>
<path fill="#4299E1" opacity="1.000000" stroke="none" 
	d="
M1.000002,295.333313 
	C3.690563,293.996826 6.494937,293.219696 9.044398,291.936218 
	C12.662943,290.114502 16.244289,288.137451 19.570993,285.835754 
	C25.082006,282.022736 30.377466,277.898163 35.963669,273.756622 
	C32.620647,267.853363 29.285633,262.248535 26.237465,256.491760 
	C23.799143,251.886765 26.303761,248.254135 31.614462,247.976471 
	C49.594528,247.036438 67.571022,246.024780 85.545464,244.981522 
	C95.923195,244.379181 106.293396,243.648254 116.668671,243.002304 
	C132.978760,241.986832 149.291428,241.012497 165.600861,239.986725 
	C181.080200,239.013168 196.555832,237.980545 212.034882,237.002182 
	C228.177979,235.981857 244.323410,234.998749 260.467438,233.993118 
	C276.445435,232.997864 292.426392,232.046494 308.399170,230.973465 
	C316.448486,230.432724 324.478180,229.603867 332.525848,229.033722 
	C335.285980,228.838196 338.641815,228.264313 339.750244,231.771576 
	C340.879211,235.343781 339.851654,238.543625 336.602325,240.930817 
	C325.771393,248.888062 315.396332,257.542664 304.111511,264.784668 
	C291.582123,272.825409 278.246002,279.609161 265.259918,286.938049 
	C264.177307,287.549042 263.085541,288.143829 261.897430,288.801849 
	C266.071350,292.584503 271.859467,293.278259 276.011841,290.389282 
	C282.196259,286.086517 288.424103,281.809937 294.296021,277.101440 
	C308.526215,265.690674 319.102539,266.612671 332.827728,277.301941 
	C338.259888,281.532532 343.597900,285.965759 349.438599,289.559326 
	C352.926758,291.705475 357.306671,292.402161 361.642883,293.875214 
	C362.000000,296.936737 362.000000,299.873505 362.000000,303.000000 
	C357.985626,303.000000 353.969482,303.000000 349.366669,302.669739 
	C339.972839,296.134827 331.004547,290.143433 322.412079,283.654449 
	C316.127747,278.908600 310.801971,278.677582 302.878296,284.450348 
	C293.864868,291.016998 284.316071,296.848755 275.000000,303.000000 
	C270.643097,303.000000 266.286194,303.000000 261.448914,302.636475 
	C252.004211,295.853851 243.089630,289.363739 234.058319,283.040314 
	C227.932785,278.751434 223.731461,278.913116 217.401093,283.085876 
	C207.286575,289.753021 197.135574,296.364807 187.000000,303.000000 
	C182.643097,303.000000 178.286194,303.000000 173.449203,302.638000 
	C163.635040,295.513641 154.419769,288.577942 144.915176,282.064423 
	C140.379211,278.955902 135.662643,279.057739 130.762131,282.503510 
	C120.685875,289.588531 110.273842,296.195984 100.000000,303.000000 
	C96.638710,303.000000 93.277428,303.000000 89.301819,302.666504 
	C85.618294,300.880585 82.321747,299.769745 79.524719,297.908356 
	C72.576118,293.284088 65.824837,288.359833 59.051971,283.476074 
	C52.619633,278.837860 48.991577,278.712585 42.524166,282.977631 
	C32.365894,289.676697 22.176317,296.328278 11.999998,303.000000 
	C9.629442,303.000000 7.258885,303.000000 4.330217,302.664368 
	C2.848071,300.552460 1.924034,298.776245 0.999998,297.000000 
	C1.000000,296.555542 1.000000,296.111115 1.000002,295.333313 
M189.174088,289.956818 
	C196.610550,284.585175 204.140671,279.337128 211.450577,273.798462 
	C216.312531,270.114594 221.688110,268.761993 227.617950,269.003479 
	C235.525345,269.325500 241.330994,274.169647 246.959167,278.767761 
	C250.103714,281.336823 252.239365,281.030853 255.300308,279.351776 
	C267.812866,272.488159 280.605743,266.111633 292.903229,258.888062 
	C301.525299,253.823425 309.512543,247.677979 317.783295,242.015198 
	C317.599152,241.580856 317.415009,241.146515 317.230865,240.712173 
	C308.242126,241.467087 299.263367,242.381653 290.262573,242.943192 
	C272.288910,244.064545 254.304123,245.008835 236.322037,245.991760 
	C229.220184,246.379959 222.103882,246.542038 215.010574,247.040604 
	C197.252182,248.288773 179.509338,249.762070 161.747711,250.958572 
	C153.325562,251.525909 144.872818,251.626617 136.437424,252.014618 
	C130.496368,252.287903 124.556946,252.628387 118.624184,253.044312 
	C100.202393,254.335831 81.786850,255.717377 63.363174,256.980774 
	C55.814095,257.498505 48.250408,257.803192 40.663464,258.206390 
	C43.506161,267.039307 45.028069,268.171326 53.607418,269.080902 
	C55.983162,269.332794 58.571842,270.032959 60.530720,271.330658 
	C68.579964,276.663116 76.554939,282.128998 84.305595,287.884644 
	C91.562073,293.273346 95.450005,293.688232 102.988258,288.513641 
	C108.928711,284.435883 114.834534,280.290100 120.551392,275.907898 
	C131.754898,267.320068 142.194153,266.534210 153.071869,274.055939 
	C159.945114,278.808624 166.599686,283.878326 173.334183,288.830597 
	C178.108154,292.341187 183.058304,293.551178 189.174088,289.956818 
z"/>
<path fill="#4299E1" opacity="1.000000" stroke="none" 
	d="
M58.571537,1.000001 
	C68.645546,6.801998 78.342636,12.520329 87.926079,18.423149 
	C108.821175,31.293264 128.097870,46.238319 146.357498,62.673115 
	C171.316666,85.137901 192.622574,110.397026 208.954758,139.784225 
	C221.066879,161.578094 229.608047,184.603622 233.013840,209.401627 
	C233.415558,212.326706 233.903214,215.267776 233.949509,218.207764 
	C234.031036,223.385300 231.138855,225.140778 226.140991,223.651352 
	C211.916962,219.412369 197.736603,214.966141 183.346924,211.370407 
	C176.556442,209.673569 169.341522,209.411026 162.291824,209.085663 
	C154.266449,208.715271 146.204605,208.795486 138.169662,209.041321 
	C119.792603,209.603561 102.070473,213.520538 85.318512,221.036087 
	C76.080818,225.180466 67.411674,230.579224 58.267632,234.955795 
	C56.374588,235.861862 51.940067,235.491608 51.428619,234.409271 
	C50.370155,232.169342 49.999439,228.077225 51.369213,226.449326 
	C68.183189,206.466858 77.691780,183.091110 82.695015,157.925766 
	C85.056244,146.049225 86.149727,133.648804 85.757278,121.552597 
	C84.912163,95.504677 79.313828,70.224419 68.955795,46.228569 
	C63.700146,34.053101 57.688053,22.188231 51.609585,10.393388 
	C49.741940,6.769352 50.073093,4.273024 52.887276,1.334998 
	C54.714359,1.000000 56.428715,1.000000 58.571537,1.000001 
M80.903763,45.727577 
	C83.356209,53.346001 86.372925,60.836491 88.135635,68.611298 
	C91.168152,81.986839 94.800804,95.455109 95.631157,109.040344 
	C96.564728,124.314270 95.227982,139.810715 93.851196,155.117935 
	C92.541588,169.678299 88.128166,183.601791 82.042358,196.949936 
	C80.058372,201.301453 78.371361,205.788361 76.548523,210.213333 
	C76.904869,210.675034 77.261208,211.136734 77.617554,211.598419 
	C100.653542,202.697556 124.261505,197.711243 149.023117,197.821945 
	C173.936584,197.933319 197.973938,202.071976 221.743851,209.985779 
	C221.822968,208.579193 222.139633,207.386765 221.913361,206.308243 
	C218.444611,189.774307 213.452072,173.749176 206.163391,158.454224 
	C196.788681,138.781906 185.430267,120.357590 170.672226,104.313408 
	C157.906342,90.434990 145.290787,76.189407 130.980347,64.021263 
	C114.802818,50.265518 96.834831,38.609909 79.576569,26.136337 
	C76.812263,24.138416 73.687935,22.638628 70.034714,20.501860 
	C73.835419,29.388350 77.182365,37.213894 80.903763,45.727577 
z"/>
<path fill="#FFFFFF" opacity="1.000000" stroke="none" 
	d="
M12.468655,303.000000 
	C22.176317,296.328278 32.365894,289.676697 42.524166,282.977631 
	C48.991577,278.712585 52.619633,278.837860 59.051971,283.476074 
	C65.824837,288.359833 72.576118,293.284088 79.524719,297.908356 
	C82.321747,299.769745 85.618294,300.880585 88.843750,302.666504 
	C63.645771,303.000000 38.291542,303.000000 12.468655,303.000000 
z"/>
<path fill="#FFFFFF" opacity="1.000000" stroke="none" 
	d="
M100.468658,303.000000 
	C110.273842,296.195984 120.685875,289.588531 130.762131,282.503510 
	C135.662643,279.057739 140.379211,278.955902 144.915176,282.064423 
	C154.419769,288.577942 163.635040,295.513641 172.984558,302.638000 
	C148.979111,303.000000 124.958214,303.000000 100.468658,303.000000 
z"/>
<path fill="#FFFFFF" opacity="1.000000" stroke="none" 
	d="
M187.468658,303.000000 
	C197.135574,296.364807 207.286575,289.753021 217.401093,283.085876 
	C223.731461,278.913116 227.932785,278.751434 234.058319,283.040314 
	C243.089630,289.363739 252.004211,295.853851 260.984253,302.636475 
	C236.645767,303.000000 212.291550,303.000000 187.468658,303.000000 
z"/>
<path fill="#FFFFFF" opacity="1.000000" stroke="none" 
	d="
M275.468658,303.000000 
	C284.316071,296.848755 293.864868,291.016998 302.878296,284.450348 
	C310.801971,278.677582 316.127747,278.908600 322.412079,283.654449 
	C331.004547,290.143433 339.972839,296.134827 348.890015,302.669739 
	C324.645782,303.000000 300.291534,303.000000 275.468658,303.000000 
z"/>
<path fill="#FFFFFF" opacity="1.000000" stroke="none" 
	d="
M0.999998,297.499481 
	C1.924034,298.776245 2.848071,300.552460 3.886054,302.664368 
	C-1.031392,303.751312 1.630138,299.887848 0.999998,297.499481 
z"/>
<path fill="#4299E1" opacity="1.000000" stroke="none" 
	d="
M298.787842,222.345673 
	C288.751099,216.562790 278.109528,214.988312 267.141693,215.048157 
	C264.202942,215.064178 261.253601,215.576050 258.333710,216.021576 
	C254.163559,216.657852 252.450638,214.441101 251.331451,210.807556 
	C247.342072,197.855576 243.628952,184.791992 238.975281,172.076614 
	C229.064178,144.996155 215.844559,119.569038 198.096970,96.755951 
	C190.010941,86.361977 181.267151,76.417053 172.155884,66.906288 
	C166.503006,61.005524 159.567490,56.341061 153.282883,51.032631 
	C151.716324,49.709389 149.738663,48.244125 149.228546,46.475388 
	C148.716415,44.699718 149.478516,40.870140 150.242310,40.715981 
	C152.990662,40.161297 156.452530,39.873493 158.791046,41.105446 
	C170.823486,47.444298 182.823074,53.909458 194.397186,61.039810 
	C213.149307,72.592285 228.769363,88.003014 243.403198,104.183014 
	C257.934448,120.249596 270.079987,138.210632 280.686859,157.185242 
	C290.797516,175.272156 299.103455,194.104141 305.391663,213.833023 
	C307.275482,219.743362 304.859039,223.029037 298.787842,222.345673 
M287.153656,206.009247 
	C288.333832,206.255661 289.513977,206.502075 290.848907,206.780792 
	C284.832001,173.316299 221.333939,84.937729 199.804688,80.396255 
	C229.842117,117.531647 248.975708,159.675980 261.019196,203.828903 
	C270.117798,204.608795 278.209961,205.302429 287.153656,206.009247 
z"/>
<path fill="#FFFFFF" opacity="1.000000" stroke="none" 
	d="
M188.800278,290.056885 
	C183.058304,293.551178 178.108154,292.341187 173.334183,288.830597 
	C166.599686,283.878326 159.945114,278.808624 153.071869,274.055939 
	C142.194153,266.534210 131.754898,267.320068 120.551392,275.907898 
	C114.834534,280.290100 108.928711,284.435883 102.988258,288.513641 
	C95.450005,293.688232 91.562073,293.273346 84.305595,287.884644 
	C76.554939,282.128998 68.579964,276.663116 60.530720,271.330658 
	C58.571842,270.032959 55.983162,269.332794 53.607418,269.080902 
	C45.028069,268.171326 43.506161,267.039307 40.663464,258.206390 
	C48.250408,257.803192 55.814095,257.498505 63.363174,256.980774 
	C81.786850,255.717377 100.202393,254.335831 118.624184,253.044312 
	C124.556946,252.628387 130.496368,252.287903 136.437424,252.014618 
	C144.872818,251.626617 153.325562,251.525909 161.747711,250.958572 
	C179.509338,249.762070 197.252182,248.288773 215.010574,247.040604 
	C222.103882,246.542038 229.220184,246.379959 236.322037,245.991760 
	C254.304123,245.008835 272.288910,244.064545 290.262573,242.943192 
	C299.263367,242.381653 308.242126,241.467087 317.230865,240.712173 
	C317.415009,241.146515 317.599152,241.580856 317.783295,242.015198 
	C309.512543,247.677979 301.525299,253.823425 292.903229,258.888062 
	C280.605743,266.111633 267.812866,272.488159 255.300308,279.351776 
	C252.239365,281.030853 250.103714,281.336823 246.959167,278.767761 
	C241.330994,274.169647 235.525345,269.325500 227.617950,269.003479 
	C221.688110,268.761993 216.312531,270.114594 211.450577,273.798462 
	C204.140671,279.337128 196.610550,284.585175 188.800278,290.056885 
z"/>
<path fill="#FFFFFF" opacity="1.000000" stroke="none" 
	d="
M80.716537,45.383507 
	C77.182365,37.213894 73.835419,29.388350 70.034714,20.501860 
	C73.687935,22.638628 76.812263,24.138416 79.576569,26.136337 
	C96.834831,38.609909 114.802818,50.265518 130.980347,64.021263 
	C145.290787,76.189407 157.906342,90.434990 170.672226,104.313408 
	C185.430267,120.357590 196.788681,138.781906 206.163391,158.454224 
	C213.452072,173.749176 218.444611,189.774307 221.913361,206.308243 
	C222.139633,207.386765 221.822968,208.579193 221.743851,209.985779 
	C197.973938,202.071976 173.936584,197.933319 149.023117,197.821945 
	C124.261505,197.711243 100.653542,202.697556 77.617554,211.598419 
	C77.261208,211.136734 76.904869,210.675034 76.548523,210.213333 
	C78.371361,205.788361 80.058372,201.301453 82.042358,196.949936 
	C88.128166,183.601791 92.541588,169.678299 93.851196,155.117935 
	C95.227982,139.810715 96.564728,124.314270 95.631157,109.040344 
	C94.800804,95.455109 91.168152,81.986839 88.135635,68.611298 
	C86.372925,60.836491 83.356209,53.346001 80.716537,45.383507 
z"/>
<path fill="#FFFFFF" opacity="1.000000" stroke="none" 
	d="
M286.727905,206.002655 
	C278.209961,205.302429 270.117798,204.608795 261.019196,203.828903 
	C248.975708,159.675980 229.842117,117.531647 199.804688,80.396255 
	C221.333939,84.937729 284.832001,173.316299 290.848907,206.780792 
	C289.513977,206.502075 288.333832,206.255661 286.727905,206.002655 
z"/>
</svg>